<svg xmlns="http://www.w3.org/2000/svg" viewBox="0 0 157.61 158"><defs><style>.cls-1{fill:blue;}</style></defs><g id="Layer_2" data-name="Layer 2"><g id="Layer_1-2" data-name="Layer 1"><path class="cls-1" d="M154.86,9.91c-2.07-.68-11.1-1.23-16.26-.69S105.4,20.14,99.73,22.45A42.26,42.26,0,0,1,87.28,25,35.39,35.39,0,0,0,80,21.66a18.39,18.39,0,0,0-7.23.12S39.36,2.46,31.42.68,8.36.81,3.7,4.64.1,37,.1,37s12.36,6.9,18.61,8.16S51.58,43.9,51.58,43.9,43.71,59.69,43,69s-6.46,45.67-9.33,55.6S20.24,158,20.24,158l15.27-12.22,10,9.83S54.69,133.7,57.28,123s3.47-54.17,5.91-64.24,17-16.9,17-16.9,16,29.59,20,36.22,6.76,33.09,8.85,43,8.23,26.53,8.23,26.53l8.53-13.72,21.22,7.8c-.22-.46-7.56-15.31-10.6-23s-10.15-35-15.13-47.7-19.45-24.77-19.45-24.77,28.37,3.12,38.39,2.69a16,16,0,0,0,13.69-8.7l3.59-20.29C158.17,15.81,156.18,10.35,154.86,9.91ZM7.36,35.42c-3.89-3,2.64-3.29,8.29-3.86C23.38,30.79,58,36.47,58,36.47S18.63,44.23,7.36,35.42Zm131.48,8.5c-12.45.76-35.32-2.45-35.32-2.45s38-8.1,42.57-1.94C148.2,42.35,144.66,43.57,138.84,43.92Z"/></g></g></svg>